<svg viewBox="0 0 100 100"><circle cx="28" cy="40" r="13" fill="#FE0005" stroke="#FE0003" stroke-width="1"/><circle cx="22.96" cy="34.96" r="1.4" fill="#FE0015" fill-opacity="0.8"/><circle cx="26.32" cy="34.96" r="1.4" fill="#FE0015" fill-opacity="0.8"/><circle cx="29.68" cy="34.96" r="1.4" fill="#FE0015" fill-opacity="0.8"/><circle cx="33.04" cy="34.96" r="1.4" fill="#FE0015" fill-opacity="0.8"/><circle cx="22.96" cy="38.32" r="1.4" fill="#FE0015" fill-opacity="0.8"/><circle cx="26.32" cy="38.32" r="1.4" fill="#FE0015" fill-opacity="0.8"/><circle cx="29.68" cy="38.32" r="1.4" fill="#FE0015" fill-opacity="0.8"/><circle cx="33.04" cy="38.32" r="1.4" fill="#FE0015" fill-opacity="0.8"/><circle cx="22.96" cy="41.68" r="1.4" fill="#FE0015" fill-opacity="0.8"/><circle cx="26.32" cy="41.68" r="1.4" fill="#FE0015" fill-opacity="0.8"/><circle cx="29.68" cy="41.68" r="1.4" fill="#FE0015" fill-opacity="0.8"/><circle cx="33.04" cy="41.68" r="1.4" fill="#FE0015" fill-opacity="0.8"/><text x="28" y="62" font-size="5.5" fill="#FE0002" font-family="IBM Plex Mono" text-anchor="middle">ESPRESSO</text><circle cx="72" cy="40" r="13" fill="#FE0005" stroke="#FE0003" stroke-width="1"/><circle cx="68.4" cy="36.4" r="3" fill="#FE0015" fill-opacity="0.8"/><circle cx="75.6" cy="36.4" r="3" fill="#FE0015" fill-opacity="0.8"/><circle cx="68.4" cy="43.6" r="3" fill="#FE0015" fill-opacity="0.8"/><circle cx="75.6" cy="43.6" r="3" fill="#FE0015" fill-opacity="0.8"/><text x="72" y="62" font-size="5.5" fill="#FE0002" font-family="IBM Plex Mono" text-anchor="middle">PRESS</text><path d="M30 76 L70 76" stroke="#FE0006" stroke-width="1.2" stroke-linecap="round"/><path d="M70 76 L65 73 M70 76 L65 79" stroke="#FE0006" stroke-width="1.2" stroke-linecap="round"/><text x="50" y="90" font-size="5.5" fill="#FE0006" font-family="IBM Plex Mono" text-anchor="middle" letter-spacing="0.5">LONGER CONTACT</text></svg>
